# xmcd CD database file
#
# Track frame offsets:
#	150
#	15755
#	38980
#	62915
#	90529
#	115629
#	142723
#	169827
#	193796
#	219139
#	244315
#	270589
#
# Disc length: 3904 seconds
#
# Revision: 2
# Processed by: cddbd v1.5.1PL0 Copyright (c) Steve Scherf et al.
# Submitted via: CDex 1.40Beta9
#
DISCID=970f3e0c
DTITLE=John Irving - The Fourth Hand
DYEAR=2001
DGENRE=General Books
TTITLE0=Fourth Hand 8a
TTITLE1=Fourth Hand 8b
TTITLE2=Fourth Hand 8c
TTITLE3=Fourth Hand 8d
TTITLE4=Fourth Hand 8e
TTITLE5=Fourth Hand 8f
TTITLE6=Fourth Hand 8g
TTITLE7=Fourth Hand 8h
TTITLE8=Fourth Hand 8i
TTITLE9=Fourth Hand 8j
TTITLE10=Fourth Hand 8k
TTITLE11=Fourth Hand 8l
EXTD=YEAR: 2001
EXTT0=
EXTT1=
EXTT2=
EXTT3=
EXTT4=
EXTT5=
EXTT6=
EXTT7=
EXTT8=
EXTT9=
EXTT10=
EXTT11=
PLAYORDER=
